<svg width="128" height="128" viewBox="0 0 128 128" fill="none" xmlns="http://www.w3.org/2000/svg">
  <defs>
    <linearGradient id="bgGradient" x1="16" y1="12" x2="112" y2="116" gradientUnits="userSpaceOnUse">
      <stop offset="0%" stop-color="#5B6778"/>
      <stop offset="52%" stop-color="#8B7A6A"/>
      <stop offset="100%" stop-color="#E6A15C"/>
    </linearGradient>

    <radialGradient id="gloss" cx="0" cy="0" r="1" gradientUnits="userSpaceOnUse"
        gradientTransform="translate(34 28) rotate(45) scale(68)">
      <stop offset="0%" stop-color="white" stop-opacity="0.34"/>
      <stop offset="100%" stop-color="white" stop-opacity="0"/>
    </radialGradient>

    <clipPath id="clip">
      <rect x="8" y="8" width="112" height="112" rx="28"/>
    </clipPath>
  </defs>

  <!-- Background -->
  <g>
    <rect x="8" y="8" width="112" height="112" rx="28" fill="url(#bgGradient)"/>
    <rect x="8.5" y="8.5" width="111" height="111" rx="27.5" stroke="white" stroke-opacity="0.08"/>
    <rect x="8" y="8" width="112" height="112" rx="28" fill="url(#gloss)"/>
  </g>

  <!-- Static shine -->
  <g clip-path="url(#clip)" opacity="0.5">
    <rect x="20" y="0" width="28" height="180" rx="14" transform="rotate(18 20 0)" fill="white" fill-opacity="0.10"/>
  </g>

  <!-- Sparkles -->
  <g fill="white">
    <g>
      <path d="M50 31C52.2 42.5 53.8 44.1 65.3 46.3C53.8 48.5 52.2 50.1 50 61.6C47.8 50.1 46.2 48.5 34.7 46.3C46.2 44.1 47.8 42.5 50 31Z" fill-opacity="0.98"/>
    </g>

    <g>
      <path d="M74 45C75.3 51.5 76.5 52.7 83 54C76.5 55.3 75.3 56.5 74 63C72.7 56.5 71.5 55.3 65 54C71.5 52.7 72.7 51.5 74 45Z" fill-opacity="0.9"/>
    </g>

    <g>
      <path d="M36 58C37 63 38 64 43 65C38 66 37 67 36 72C35 67 34 66 29 65C34 64 35 63 36 58Z" fill-opacity="0.84"/>
    </g>
  </g>

  <!-- Static dots -->
  <g opacity="0.22">
    <circle cx="92" cy="34" r="2" fill="white"/>
    <circle cx="28" cy="90" r="1.8" fill="white"/>
  </g>
</svg>